<?xml version="1.0" encoding="UTF-8" standalone="no"?>
<!DOCTYPE svg PUBLIC "-//W3C//DTD SVG 1.1//EN" "http://www.w3.org/Graphics/SVG/1.1/DTD/svg11.dtd">
<svg width="100%" height="100%" viewBox="0 0 2000 2000" version="1.1" xmlns="http://www.w3.org/2000/svg" xmlns:xlink="http://www.w3.org/1999/xlink" xml:space="preserve" xmlns:serif="http://www.serif.com/" style="fill-rule:evenodd;clip-rule:evenodd;stroke-linejoin:round;stroke-miterlimit:2;">
    <path d="M1293.082,1160.495C1292.951,1160.118 1292.234,1158.062 1293.467,1155.508C1293.852,1154.712 1294.38,1153.97 1295.014,1153.354C1295.21,1153.164 1295.356,1153.364 1297.789,1151.376C1301.694,1148.186 1309.087,1142.633 1310.08,1141.887C1311.706,1140.666 1311.889,1140.38 1319.435,1135.511C1334.444,1125.825 1346.899,1118.84 1356.202,1113.952C1357.082,1113.49 1358.896,1112.537 1367.552,1108.868C1378.338,1104.296 1386.461,1101.432 1389.85,1100.247C1389.878,1100.237 1399.965,1097.091 1412.777,1094.285C1421.548,1092.364 1429.322,1091.123 1430.861,1090.974C1448.136,1089.3 1463.081,1089.509 1476.41,1090.829C1476.591,1090.847 1487.47,1092.19 1500.764,1095.864C1505.496,1097.172 1519.194,1101.983 1529.677,1107.744C1559.771,1124.283 1575.436,1144.942 1581.246,1152.992C1598.263,1176.567 1604.612,1198.963 1606.819,1207.147C1616.159,1241.779 1615.676,1279.527 1607.677,1315.558C1604.411,1330.273 1599.48,1343.882 1598.606,1346.293C1581.154,1394.46 1548.369,1440.634 1503.886,1457.826C1462.197,1473.939 1410.079,1463.86 1370.209,1400.215C1361.434,1386.206 1357.885,1377.586 1351.411,1365.507C1348.173,1359.465 1328.772,1322.794 1310.817,1314.009C1307.336,1312.306 1303.674,1311.319 1296.451,1315.868C1277.239,1327.97 1255.672,1365.098 1235.004,1398.178C1207.883,1441.587 1177.329,1486.968 1137.182,1484.515C1117.105,1483.288 1100.44,1470.189 1087.698,1456.372C1087.411,1456.061 1085.786,1454.299 1085.739,1451.464C1085.725,1450.603 1085.861,1449.72 1086.166,1448.914C1087.705,1444.847 1091.627,1444.782 1092.213,1444.773C1093.094,1444.758 1093.992,1444.9 1094.821,1445.197C1096.616,1445.842 1096.53,1446.012 1097.989,1447.245C1127.866,1472.515 1145.686,1466.273 1158.483,1455.745C1185.375,1433.622 1205.801,1377.281 1228.399,1334.182C1245.424,1301.712 1267.329,1268.182 1302.022,1263.983C1339.548,1259.441 1370.39,1291.876 1390.634,1318.393C1403.162,1334.804 1410.336,1347.168 1415.887,1355.125C1421.032,1362.499 1445.033,1396.186 1466.586,1392.33C1478.114,1390.268 1491.22,1377.771 1501.442,1360.632C1518.283,1332.393 1521.987,1301.94 1522.674,1297.067C1528.872,1253.104 1515.89,1227.768 1514.573,1224.855C1509.921,1214.569 1504.404,1207.685 1497.972,1201.719C1491.009,1195.263 1483.878,1191.933 1482.308,1191.054C1477.015,1188.089 1472.404,1186.469 1471.013,1185.846C1464.842,1183.085 1459.019,1181.448 1458.883,1181.398C1456.374,1180.494 1446.896,1176.676 1430.328,1174.106C1428.43,1173.812 1417.952,1171.029 1399.482,1169.506C1396.595,1169.267 1387.326,1167.667 1368.761,1166.953C1367.167,1166.892 1350.133,1164.828 1321.676,1165.14C1319.438,1165.164 1314.277,1164.826 1303.245,1164.726C1302.88,1164.723 1302.719,1164.735 1301.771,1164.695C1301.559,1164.685 1301.714,1165.311 1299.196,1165.352C1296.493,1165.395 1294.831,1163.429 1294.566,1163.115C1293.583,1161.953 1293.585,1161.935 1293.082,1160.495Z" style="fill:white;"/>
</svg>
